<?xml version="1.0" encoding="utf-8"?>
<!-- Generator: Adobe Illustrator 16.0.0, SVG Export Plug-In . SVG Version: 6.00 Build 0)  -->
<!DOCTYPE svg PUBLIC "-//W3C//DTD SVG 1.1//EN" "http://www.w3.org/Graphics/SVG/1.1/DTD/svg11.dtd">
<svg version="1.1" id="Layer_1" xmlns="http://www.w3.org/2000/svg" xmlns:xlink="http://www.w3.org/1999/xlink" viewBox="0 0 30 30" enable-background="new 0 0 30 30" xml:space="preserve">
<circle opacity="0.4" fill="#FF931C" enable-background="new    " cx="20.879" cy="10.022" r="8.348"/>
<path opacity="0.3" fill="#a0c1ca" enable-background="new    " d="M12.9,12.479c-1.148-0.595-2.449-0.936-3.831-0.936
	c-4.61,0-8.348,3.737-8.348,8.348c0,4.609,3.737,8.346,8.348,8.346c4.611,0,8.348-3.735,8.348-8.346c0-0.855-0.13-1.682-0.369-2.457
	C15.077,16.412,13.563,14.635,12.9,12.479z"/>
<image display="none" overflow="visible" opacity="0.3" enable-background="new    " width="512" height="512" xlink:href="../../../../../../../../../../../Downloads/free-icon-happy-2665349.png"  transform="matrix(0.0586 0 0 0.0586 9.765625e-004 4.882813e-004)">
</image>
<ellipse fill="#F7F7F7" cx="18.904" cy="13.344" rx="2.236" ry="1.25"/>
<g>
	<path fill="#353A52" d="M2.122,24.532c0.011-0.009,0.021-0.017,0.03-0.022c0.332-0.242,0.786-0.195,1.029,0.139l0.084,0.125
		c0.261,0.32,0.226,0.811-0.096,1.072c-0.322,0.26-0.781,0.227-1.041-0.095c-0.094-0.115-0.104-0.133-0.124-0.168
		C1.768,25.259,1.813,24.781,2.122,24.532z"/>
</g>
<g>
	<path fill="#353A52" d="M6.677,10.396H5.489c-0.414,0-0.75-0.336-0.75-0.75s0.336-0.75,0.75-0.75h1.188
		c0.414,0,0.75,0.336,0.75,0.75S7.091,10.396,6.677,10.396z"/>
</g>
<g>
	<path fill="#353A52" d="M8.146,6.114c-0.192,0-0.384-0.073-0.53-0.22L7.021,5.301c-0.293-0.293-0.293-0.768,0-1.061
		c0.293-0.293,0.768-0.293,1.061,0l0.594,0.594c0.293,0.293,0.293,0.768,0,1.061C8.529,6.041,8.337,6.114,8.146,6.114z"/>
</g>
<g>
	<path fill="#353A52" d="M12.516,4.427c-0.414,0-0.75-0.336-0.75-0.75V3.052c0-0.414,0.336-0.75,0.75-0.75s0.75,0.336,0.75,0.75
		v0.625C13.266,4.091,12.93,4.427,12.516,4.427z"/>
</g>
<g>
	<path fill="#353A52" d="M24.302,21.146h-0.53c-0.414,0-0.75-0.336-0.75-0.75s0.336-0.75,0.75-0.75h0.53
		c0.414,0,0.75,0.336,0.75,0.75S24.716,21.146,24.302,21.146z"/>
</g>
<g>
	<path fill="#353A52" d="M22.552,25.989c-0.192,0-0.384-0.073-0.53-0.22l-0.594-0.595c-0.293-0.293-0.293-0.768,0-1.061
		c0.293-0.294,0.768-0.294,1.062,0l0.594,0.594c0.293,0.293,0.293,0.769,0,1.062C22.936,25.916,22.744,25.989,22.552,25.989z"/>
</g>
<g>
	<path fill="#353A52" d="M17.708,27.802c-0.414,0-0.75-0.336-0.75-0.75v-0.625c0-0.413,0.336-0.75,0.75-0.75s0.75,0.337,0.75,0.75
		v0.625C18.458,27.466,18.122,27.802,17.708,27.802z"/>
</g>
<g>
	<path fill="#353A52" d="M8.021,18.479c-0.414,0-0.75-0.336-0.75-0.75V16.77c0-0.414,0.336-0.75,0.75-0.75s0.75,0.336,0.75,0.75
		v0.959C8.771,18.145,8.435,18.479,8.021,18.479z"/>
</g>
<g>
	<path fill="#353A52" d="M12.688,18.479c-0.414,0-0.75-0.336-0.75-0.75V16.77c0-0.414,0.336-0.75,0.75-0.75s0.75,0.336,0.75,0.75
		v0.959C13.438,18.145,13.102,18.479,12.688,18.479z"/>
</g>
<g>
	<path fill="#353A52" d="M16.667,10.021c-0.414,0-0.75-0.336-0.75-0.75V8.313c0-0.414,0.336-0.75,0.75-0.75s0.75,0.336,0.75,0.75
		v0.959C17.417,9.686,17.081,10.021,16.667,10.021z"/>
</g>
<g>
	<path fill="#353A52" d="M21.229,10.021c-0.414,0-0.75-0.336-0.75-0.75V8.313c0-0.414,0.336-0.75,0.75-0.75s0.75,0.336,0.75,0.75
		v0.959C21.979,9.686,21.645,10.021,21.229,10.021z"/>
</g>
<g>
	<path fill="#353A52" d="M10.393,23.271c-1.114,0-2.085-0.586-2.603-1.088c-0.297-0.289-0.305-0.764-0.017-1.061
		c0.287-0.298,0.76-0.305,1.058-0.021l0,0c0.253,0.24,1.584,1.363,2.954,0.01c0.294-0.293,0.77-0.289,1.061,0.006
		c0.292,0.294,0.289,0.77-0.006,1.061C12.024,22.984,11.173,23.271,10.393,23.271z"/>
</g>
<g>
	<path fill="#353A52" d="M18.889,15.317c-1.437,0-2.972-0.85-2.972-3.234c0-0.414,0.336-0.75,0.75-0.75h4.442
		c0.414,0,0.75,0.336,0.75,0.75C21.859,14.468,20.325,15.317,18.889,15.317z M17.508,12.833c0.184,0.654,0.646,0.984,1.381,0.984
		c0.735,0,1.197-0.331,1.381-0.984H17.508z"/>
</g>
<path fill="#353A52" d="M13.912,25.835c-2.462,1.993-5.941,2.246-8.662,0.629c-0.357-0.211-0.82-0.094-1.027,0.263
	c-0.211,0.354-0.096,0.815,0.262,1.026c3.255,1.937,7.423,1.636,10.37-0.753c2.559-2.072,3.688-5.256,3.275-8.303
	c-0.582-0.184-1.139-0.426-1.664-0.719C17.208,20.784,16.311,23.893,13.912,25.835z"/>
<path fill="#353A52" d="M3.406,12.86c-2.988,2.421-4.136,6.481-2.853,10.104c0.138,0.392,0.566,0.595,0.956,0.457
	c0.393-0.14,0.594-0.565,0.457-0.958c-1.07-3.027-0.113-6.416,2.383-8.438c2.313-1.873,5.399-2.153,7.939-0.995
	c-0.2-0.568-0.344-1.16-0.428-1.772C9.049,10.378,5.863,10.871,3.406,12.86z"/>
<path display="none" fill="#353A52" d="M28.477,3.161H26.65V1.335c0-0.414-0.336-0.75-0.75-0.75s-0.75,0.336-0.75,0.75v1.826h-1.826
	c-0.414,0-0.75,0.336-0.75,0.75s0.336,0.75,0.75,0.75h1.826v1.826c0,0.414,0.336,0.75,0.75,0.75s0.75-0.336,0.75-0.75V4.661h1.826
	c0.414,0,0.75-0.336,0.75-0.75S28.891,3.161,28.477,3.161z"/>
<g>
	<path fill="#353A52" d="M20.878,19.119c-5.017,0-9.097-4.081-9.097-9.097s4.08-9.097,9.097-9.097c0.919,0,1.829,0.138,2.704,0.41
		c0.396,0.123,0.616,0.543,0.493,0.939c-0.122,0.395-0.539,0.62-0.938,0.494c-0.729-0.227-1.49-0.342-2.259-0.342
		c-4.188,0-7.597,3.408-7.597,7.597s3.408,7.597,7.597,7.597s7.599-3.408,7.599-7.597c0-1.354-0.36-2.683-1.043-3.844
		c-0.211-0.357-0.092-0.816,0.267-1.026c0.356-0.211,0.815-0.09,1.026,0.267c0.816,1.391,1.25,2.983,1.25,4.604
		C29.977,15.038,25.895,19.119,20.878,19.119z"/>
</g>
<g>
	<path fill="#353A52" d="M25.9,6c-0.414,0-0.75-0.336-0.75-0.75V2.302c0-0.414,0.336-0.75,0.75-0.75s0.75,0.336,0.75,0.75V5.25
		C26.65,5.664,26.314,6,25.9,6z"/>
</g>
<g>
	<path fill="#353A52" d="M27.375,4.525h-2.949c-0.414,0-0.75-0.336-0.75-0.75s0.336-0.75,0.75-0.75h2.949
		c0.414,0,0.75,0.336,0.75,0.75S27.789,4.525,27.375,4.525z"/>
</g>
</svg>
