<?xml version="1.0" encoding="utf-8"?>
<!-- Generator: Adobe Illustrator 16.0.0, SVG Export Plug-In . SVG Version: 6.00 Build 0)  -->
<!DOCTYPE svg PUBLIC "-//W3C//DTD SVG 1.1//EN" "http://www.w3.org/Graphics/SVG/1.1/DTD/svg11.dtd">
<svg version="1.1" id="Layer_1" xmlns="http://www.w3.org/2000/svg" xmlns:xlink="http://www.w3.org/1999/xlink" x="0px" y="0px"
	 width="300px" height="300px" viewBox="0 0 300 300" enable-background="new 0 0 300 300" xml:space="preserve">
<path fill="#F8F8F8" d="M292.569,276.586l-84.177-84.179c17.536-20.399,28.202-46.868,28.202-75.813
	C236.595,52.308,184.286,0,119.998,0C55.712,0,3.404,52.308,3.404,116.594c0,64.288,52.308,116.597,116.594,116.597
	c25.448,0,48.945-8.286,68.137-22.174l85,85.004c2.684,2.684,6.201,4.024,9.719,4.024c3.515,0,7.032-1.341,9.716-4.024
	C297.938,290.65,297.938,281.953,292.569,276.586z M119.998,205.703c-49.129,0-89.107-39.978-89.107-89.109
	c0-49.129,39.978-89.107,89.107-89.107c49.132,0,89.109,39.978,89.109,89.107C209.107,165.726,169.13,205.703,119.998,205.703z"/>
</svg>
