<?xml version="1.0" encoding="utf-8"?>
<!-- Generator: Adobe Illustrator 16.0.0, SVG Export Plug-In . SVG Version: 6.00 Build 0)  -->
<!DOCTYPE svg PUBLIC "-//W3C//DTD SVG 1.1//EN" "http://www.w3.org/Graphics/SVG/1.1/DTD/svg11.dtd">
<svg version="1.1" id="Layer_1" xmlns="http://www.w3.org/2000/svg" xmlns:xlink="http://www.w3.org/1999/xlink" x="0px" y="0px"
	 width="100px" height="100px" viewBox="0 0 100 100" enable-background="new 0 0 100 100" xml:space="preserve">
<path id="changeImg" d="M97.223,71.161C89.02,88.628,71.256,99.914,51.968,99.914c-16.916,0-32.217-8.46-41.32-21.823l-0.255,5.494
	c-0.103,2.207-1.985,3.92-4.181,3.811c-2.207-0.103-3.913-1.975-3.81-4.182l1.025-22.052c0.007-0.154,0.038-0.302,0.062-0.451
	c0.014-0.086,0.016-0.172,0.036-0.258c0.057-0.246,0.136-0.483,0.235-0.71c0.021-0.049,0.053-0.094,0.077-0.143
	c0.089-0.181,0.186-0.357,0.299-0.522c0.013-0.018,0.02-0.038,0.033-0.057c0.039-0.055,0.089-0.097,0.131-0.149
	c0.102-0.128,0.206-0.252,0.322-0.367c0.077-0.076,0.158-0.145,0.24-0.213c0.107-0.09,0.217-0.175,0.333-0.253
	c0.094-0.063,0.188-0.121,0.286-0.176c0.118-0.066,0.24-0.124,0.365-0.178c0.104-0.045,0.207-0.087,0.313-0.123
	c0.126-0.042,0.256-0.073,0.388-0.103c0.114-0.026,0.227-0.052,0.342-0.067c0.043-0.006,0.083-0.02,0.127-0.024
	c0.091-0.009,0.179,0,0.269-0.003c0.119-0.004,0.236-0.01,0.354-0.003c0.137,0.007,0.269,0.028,0.402,0.05
	c0.112,0.018,0.223,0.03,0.333,0.058c0.15,0.037,0.294,0.091,0.438,0.145c0.089,0.033,0.179,0.057,0.267,0.097
	c0.228,0.104,0.444,0.228,0.648,0.371c0.007,0.005,0.014,0.007,0.021,0.012L26.78,70.269c1.797,1.284,2.212,3.783,0.928,5.58
	c-0.78,1.092-2.01,1.674-3.257,1.674c-0.805,0-1.618-0.242-2.323-0.746l-5.233-3.74c7.596,11.539,20.633,18.878,35.073,18.878
	c16.201,0,31.123-9.48,38.015-24.153c0.938-1.999,3.319-2.861,5.32-1.92C97.303,66.779,98.162,69.162,97.223,71.161z M96.241,40.28
	c0.1-0.227,0.179-0.463,0.235-0.709c0.019-0.082,0.021-0.166,0.034-0.249c0.024-0.152,0.056-0.303,0.063-0.46l1.024-22.052
	c0.103-2.207-1.604-4.079-3.811-4.181c-2.228-0.099-4.079,1.604-4.182,3.81l-0.255,5.494C80.249,8.571,64.947,0.111,48.031,0.111
	c-19.287,0-37.05,11.286-45.254,28.752c-0.939,2-0.08,4.382,1.92,5.321c1.999,0.938,4.381,0.079,5.321-1.92
	C16.909,17.592,31.83,8.111,48.031,8.111c14.44,0,27.477,7.338,35.074,18.878l-5.233-3.741c-1.796-1.282-4.296-0.87-5.58,0.928
	c-1.285,1.797-0.869,4.296,0.928,5.581l17.033,12.175c0.075,0.054,0.155,0.092,0.232,0.14c0.083,0.051,0.163,0.105,0.25,0.15
	c0.114,0.06,0.232,0.106,0.351,0.154c0.078,0.031,0.152,0.067,0.232,0.094c0.14,0.047,0.282,0.079,0.426,0.109
	c0.064,0.014,0.126,0.034,0.191,0.045c0.213,0.034,0.427,0.054,0.641,0.054c0.002,0,0.005-0.001,0.008-0.001
	c0.133,0,0.268-0.007,0.401-0.02c0.117-0.012,0.228-0.045,0.342-0.067c0.086-0.016,0.171-0.028,0.256-0.05
	c0.274-0.071,0.54-0.162,0.788-0.287c0.019-0.01,0.036-0.024,0.056-0.034c0.233-0.122,0.448-0.269,0.651-0.433
	c0.067-0.054,0.13-0.113,0.194-0.172c0.169-0.156,0.324-0.324,0.465-0.506c0.029-0.039,0.067-0.065,0.096-0.105
	c0.014-0.019,0.021-0.04,0.034-0.059c0.111-0.162,0.206-0.335,0.293-0.513C96.185,40.381,96.219,40.333,96.241,40.28z"/>
</svg>
