<?xml version="1.0" encoding="utf-8"?>
<!-- Generator: Adobe Illustrator 16.0.0, SVG Export Plug-In . SVG Version: 6.00 Build 0)  -->
<!DOCTYPE svg PUBLIC "-//W3C//DTD SVG 1.1//EN" "http://www.w3.org/Graphics/SVG/1.1/DTD/svg11.dtd">
<svg version="1.1" id="Layer_1" xmlns="http://www.w3.org/2000/svg" xmlns:xlink="http://www.w3.org/1999/xlink" x="0px" y="0px"
	 width="30px" height="30px" viewBox="0 0 30 30" enable-background="new 0 0 30 30" xml:space="preserve">
<g id="Layer_2">
</g>
<path fill="#A0C1CA" d="M26.084,3.646h-5.818l-0.557-1.591c-0.028-0.115-0.062-0.227-0.099-0.337
	c-0.374-1.077-1.194-1.695-2.253-1.695h-4.762c-1.28,0-2.189,1.011-2.444,2.029L9.583,3.646H3.854c-1.01,0.136-1.792,0.87-2,2v1.093
	v1.152v0.233h0.033c0.078,0.546,0.411,0.704,0.967,0.704h24.23c0.637,0,0.885-0.199,0.966-0.571h0.034V7.891V6.739V5.646
	C28.016,4.938,27.547,3.875,26.084,3.646z M11.863,2.609c0.012-0.034,0.022-0.069,0.03-0.104c0.064-0.284,0.324-0.683,0.702-0.683
	h4.762c0.144,0,0.384,0,0.551,0.481c0.022,0.065,0.042,0.133,0.059,0.205c0.007,0.033,0.017,0.065,0.027,0.097l0.364,1.041h-6.864
	L11.863,2.609z"/>
<path fill="#A0C1CA" d="M26.109,10.833L26.109,10.833h-3.607h-6.839h-0.762h-0.003h-0.762H7.165H3.69H3.689l-0.003-0.004
	l0.937,10.424l0.465,6.611l0.054,0.388c0.011,0.045,0.033,0.089,0.049,0.134c0.082,0.237,0.238,0.474,0.434,0.691
	C5.943,29.629,6.511,30,7.165,30h0.219h0.017h3.125h0.03h0.01h8.667h0.01h0.03h3.125h0.017h0.087c0.492,0,0.937-0.21,1.264-0.548
	c0.389-0.298,0.71-0.681,0.842-1.066c0.017-0.045,0.039-0.089,0.05-0.134l0.054-0.388l0.466-6.611l0.937-10.418v-0.001v-0.004
	L26.109,10.833z M10.538,25.521c0,0.47-0.381,0.85-0.85,0.85s-0.85-0.38-0.85-0.85V13.375c0-0.469,0.381-0.85,0.85-0.85
	s0.85,0.381,0.85,0.85V25.521z M15.818,25.521c0,0.47-0.38,0.85-0.85,0.85c-0.469,0-0.85-0.38-0.85-0.85V13.375
	c0-0.469,0.381-0.85,0.85-0.85c0.47,0,0.85,0.381,0.85,0.85V25.521z M21.1,25.521c0,0.47-0.38,0.85-0.85,0.85s-0.85-0.38-0.85-0.85
	V13.375c0-0.469,0.38-0.85,0.85-0.85s0.85,0.381,0.85,0.85V25.521z"/>
<image display="none" overflow="visible" opacity="0.5" width="512" height="512" xlink:href="trash-can-b.png"  transform="matrix(0.0585 0 0 0.0585 0 0.0625)">
</image>
</svg>
