<?xml version="1.0" encoding="utf-8"?>
<!-- Generator: Adobe Illustrator 16.0.0, SVG Export Plug-In . SVG Version: 6.00 Build 0)  -->
<!DOCTYPE svg PUBLIC "-//W3C//DTD SVG 1.1//EN" "http://www.w3.org/Graphics/SVG/1.1/DTD/svg11.dtd">
<svg version="1.1" id="Layer_1" xmlns="http://www.w3.org/2000/svg" xmlns:xlink="http://www.w3.org/1999/xlink" x="0px" y="0px"
	 viewBox="0 0 30 30" enable-background="new 0 0 30 30" xml:space="preserve">
<g>
	<g display="none">
		<g display="inline">
			<path fill="#FF0000" d="M18.844,20.094c-0.32,0-0.64-0.121-0.884-0.365l-7.687-7.688c-0.488-0.488-0.488-1.28,0-1.768
				s1.279-0.488,1.768,0l7.688,7.688c0.487,0.488,0.487,1.279,0,1.769C19.482,19.973,19.164,20.094,18.844,20.094z"/>
		</g>
		<g display="inline">
			<path fill="#FF0000" d="M11.156,20.094c-0.32,0-0.64-0.121-0.884-0.365c-0.488-0.488-0.488-1.279,0-1.769l7.688-7.688
				c0.488-0.488,1.279-0.488,1.769,0c0.488,0.488,0.487,1.279,0,1.768l-7.688,7.688C11.796,19.973,11.476,20.094,11.156,20.094z"/>
		</g>
	</g>
</g>
<path display="none" fill="#A0C1CA" d="M15,29.916C6.775,29.916,0.084,23.225,0.084,15C0.084,6.775,6.775,0.084,15,0.084
	c8.225,0,14.916,6.691,14.916,14.916C29.916,23.225,23.225,29.916,15,29.916z M15,2.584C8.154,2.584,2.584,8.154,2.584,15
	c0,6.848,5.57,12.416,12.416,12.416c6.848,0,12.416-5.568,12.416-12.416C27.416,8.154,21.848,2.584,15,2.584z"/>
<path fill="#353A52" d="M21.915,10.429c-0.488-0.488-1.279-0.488-1.769,0l-6.804,6.803l-3.116-3.115
	c-0.488-0.488-1.279-0.488-1.768,0c-0.489,0.488-0.488,1.279,0,1.768l4,4c0.244,0.244,0.564,0.366,0.884,0.366
	c0.32,0,0.64-0.122,0.884-0.366l7.688-7.688C22.402,11.708,22.402,10.917,21.915,10.429z"/>
</svg>
