<?xml version="1.0" encoding="utf-8"?>
<!-- Generator: Adobe Illustrator 16.0.0, SVG Export Plug-In . SVG Version: 6.00 Build 0)  -->
<!DOCTYPE svg PUBLIC "-//W3C//DTD SVG 1.1//EN" "http://www.w3.org/Graphics/SVG/1.1/DTD/svg11.dtd">
<svg version="1.1" id="Layer_1" xmlns="http://www.w3.org/2000/svg" xmlns:xlink="http://www.w3.org/1999/xlink" x="0px" y="0px"
 viewBox="0 0 30 30" enable-background="new 0 0 30 30" xml:space="preserve">
<image display="none" overflow="visible" opacity="0.3" width="319" height="306" xlink:href="C60A9A6D.jpg"  transform="matrix(0.1638 0 0 0.1638 -12.5024 -9.249)">
</image>
<g>
	<g>
		<path fill="#FF0000" d="M15,29.916C6.775,29.916,0.084,23.225,0.084,15S6.775,0.084,15,0.084S29.916,6.775,29.916,15
			S23.225,29.916,15,29.916z M15,2.584C8.154,2.584,2.584,8.154,2.584,15c0,6.847,5.57,12.416,12.416,12.416
			c6.847,0,12.416-5.569,12.416-12.416C27.416,8.154,21.847,2.584,15,2.584z"/>
	</g>
	<g>
		<g>
			<path fill="#FF0000" d="M18.844,20.094c-0.32,0-0.64-0.122-0.884-0.366l-7.687-7.688c-0.488-0.488-0.488-1.28,0-1.768
				c0.488-0.488,1.279-0.488,1.768,0l7.687,7.688c0.488,0.488,0.488,1.279,0,1.768C19.483,19.972,19.164,20.094,18.844,20.094z"/>
		</g>
		<g>
			<path fill="#FF0000" d="M11.156,20.094c-0.32,0-0.64-0.122-0.884-0.366c-0.488-0.488-0.488-1.279,0-1.768l7.688-7.688
				c0.488-0.488,1.279-0.488,1.768,0s0.488,1.279,0,1.768l-7.688,7.688C11.796,19.972,11.476,20.094,11.156,20.094z"/>
		</g>
	</g>
</g>
</svg>
