<?xml version="1.0" encoding="utf-8"?>
<!-- Generator: Adobe Illustrator 16.0.0, SVG Export Plug-In . SVG Version: 6.00 Build 0)  -->
<!DOCTYPE svg PUBLIC "-//W3C//DTD SVG 1.1//EN" "http://www.w3.org/Graphics/SVG/1.1/DTD/svg11.dtd">
<svg version="1.1" id="Layer_1" xmlns="http://www.w3.org/2000/svg" xmlns:xlink="http://www.w3.org/1999/xlink" x="0px" y="0px"
	 width="300px" height="150px" viewBox="0 0 300 150" enable-background="new 0 0 300 150" xml:space="preserve">
<g display="none">
	
		<ellipse display="inline" fill="none" stroke="#353A52" stroke-width="2" stroke-miterlimit="10" cx="150.001" cy="75" rx="133.604" ry="72.722"/>
	
		<ellipse display="inline" fill="none" stroke="#353A52" stroke-width="2" stroke-miterlimit="10" cx="150.261" cy="75" rx="90.737" ry="72.722"/>
	<path display="inline" fill="none" stroke="#353A52" stroke-width="2" stroke-miterlimit="10" d="M185.829,75
		c0,40.162-35.708,72.722-35.708,72.722S114.415,115.162,114.415,75c0-40.161,35.707-72.722,35.707-72.722
		S185.829,34.839,185.829,75z"/>
	
		<line display="inline" fill="none" stroke="#353A52" stroke-width="2" stroke-miterlimit="10" x1="59.522" y1="75" x2="240.998" y2="75"/>
</g>
<g opacity="0.3">
	<g>
		<path fill="#353A52" d="M295.041,146c-0.073,0-0.147-0.016-0.218-0.05L3.674,5.164c-0.249-0.12-0.353-0.419-0.232-0.668
			c0.121-0.248,0.418-0.352,0.668-0.232L295.259,145.05c0.248,0.12,0.353,0.419,0.232,0.668
			C295.405,145.896,295.227,146,295.041,146z"/>
	</g>
	<g>
		<path fill="#353A52" d="M295.04,146c-0.248,0-0.464-0.185-0.495-0.438l-2.634-21.07c-0.034-0.274,0.16-0.524,0.434-0.559
			c0.268-0.038,0.524,0.158,0.559,0.434l2.634,21.07c0.034,0.274-0.16,0.524-0.434,0.559C295.082,145.999,295.062,146,295.04,146z"
			/>
	</g>
</g>
</svg>
