<?xml version="1.0" encoding="utf-8"?>
<!-- Generator: Adobe Illustrator 16.0.0, SVG Export Plug-In . SVG Version: 6.00 Build 0)  -->
<!DOCTYPE svg PUBLIC "-//W3C//DTD SVG 1.1//EN" "http://www.w3.org/Graphics/SVG/1.1/DTD/svg11.dtd">
<svg version="1.1" id="Layer_1" xmlns="http://www.w3.org/2000/svg" xmlns:xlink="http://www.w3.org/1999/xlink" x="0px" y="0px"
	 width="30px" height="30px" viewBox="0 0 30 30" enable-background="new 0 0 30 30" xml:space="preserve">
<g id="Layer_2">
	<g>
		<path fill="#F7F7F7" d="M28.492,7.333H22l-2.128-4.126c-0.02-0.038-0.044-0.073-0.072-0.105L19.733,3.03
			c-0.299-0.376-0.747-0.592-1.229-0.592h-7.01c-0.595,0-1.149,0.346-1.41,0.881c-0.02,0.04-0.033,0.081-0.041,0.122l-1.86,3.893
			H6.781c0.043-0.137,0.074-0.281,0.074-0.433V6.318c0-0.79-0.641-1.432-1.428-1.432H3.803c-0.787,0-1.428,0.643-1.428,1.432v0.583
			c0,0.152,0.03,0.295,0.074,0.433h-0.94C0.677,7.333,0,8.011,0,8.843v3.073v10.458v3.367c0,0.832,0.677,1.509,1.509,1.509h26.983
			c0.831,0,1.508-0.677,1.508-1.509v-3.367V11.916V8.843C30,8.011,29.323,7.333,28.492,7.333z M11.053,3.648
			c0.106-0.132,0.267-0.211,0.442-0.211h7.01c0.175,0,0.337,0.078,0.465,0.237l1.889,3.627L9.294,7.332L11.053,3.648z M3.375,6.318
			c0-0.238,0.192-0.432,0.428-0.432h1.624c0.236,0,0.428,0.194,0.428,0.432v0.583c0,0.239-0.192,0.433-0.428,0.433H3.803
			c-0.236,0-0.428-0.194-0.428-0.433V6.318z M1,12.916h7.611c-0.806,1.213-1.278,2.666-1.278,4.229s0.472,3.016,1.278,4.229H1
			V12.916z M15,10.478c3.676,0,6.667,2.991,6.667,6.667c0,3.677-2.991,6.668-6.667,6.668c-3.676,0-6.667-2.991-6.667-6.668
			C8.333,13.469,11.324,10.478,15,10.478z M29,25.741c0,0.28-0.228,0.509-0.508,0.509H1.509C1.228,26.25,1,26.021,1,25.741v-3.367
			h8.408c0,0,0-0.001-0.001-0.001c1.4,1.497,3.386,2.439,5.593,2.439c2.206,0,4.192-0.942,5.593-2.439
			c-0.001,0-0.001,0.001-0.001,0.001H29V25.741z M29,21.374h-7.611c0.807-1.214,1.278-2.667,1.278-4.229
			c0-1.563-0.473-3.017-1.279-4.231c0.001,0.001,0.001,0.001,0.002,0.002H29V21.374z M29,11.916h-8.408c0,0,0.001,0.001,0.001,0.001
			C19.193,10.42,17.207,9.478,15,9.478s-4.193,0.942-5.593,2.439c0,0,0.001-0.001,0.001-0.001H1V8.843
			c0-0.281,0.228-0.509,0.509-0.509h2.294h1.624H8.5c0.004,0,0.008,0,0.012,0h19.98c0.28,0,0.508,0.229,0.508,0.509V11.916z"/>
		<path fill="#F7F7F7" d="M15,22.374c2.883,0,5.229-2.346,5.229-5.229c0-2.883-2.346-5.229-5.229-5.229s-5.229,2.346-5.229,5.229
			C9.771,20.028,12.117,22.374,15,22.374z M15,12.917c2.332,0,4.229,1.897,4.229,4.229S17.332,21.374,15,21.374
			c-2.332,0-4.229-1.896-4.229-4.229S12.668,12.917,15,12.917z"/>
		<path fill="#F7F7F7" d="M12.645,17.646c0.276,0,0.5-0.224,0.5-0.5c0-0.953,0.775-1.728,1.729-1.728c0.276,0,0.5-0.224,0.5-0.5
			s-0.224-0.5-0.5-0.5c-1.504,0-2.729,1.224-2.729,2.728C12.145,17.422,12.368,17.646,12.645,17.646z"/>
		<path fill="#F7F7F7" d="M16.917,4.886H13c-0.276,0-0.5,0.224-0.5,0.5s0.224,0.5,0.5,0.5h3.917c0.276,0,0.5-0.224,0.5-0.5
			S17.193,4.886,16.917,4.886z"/>
		<path fill="#F7F7F7" d="M27.396,9.626h-1.666c-0.276,0-0.5,0.224-0.5,0.5s0.224,0.5,0.5,0.5h1.666c0.276,0,0.5-0.224,0.5-0.5
			S27.672,9.626,27.396,9.626z"/>
		<path fill="#F7F7F7" d="M23.688,9.626h-0.167c-0.276,0-0.5,0.224-0.5,0.5s0.224,0.5,0.5,0.5h0.167c0.276,0,0.5-0.224,0.5-0.5
			S23.964,9.626,23.688,9.626z"/>
	</g>
</g>
<g display="none" opacity="0.3">
	<defs>
		<rect id="SVGID_1_" opacity="0.3" width="30" height="30"/>
	</defs>
	<clipPath id="SVGID_2_" display="inline">
		<use xlink:href="#SVGID_1_"  overflow="visible"/>
	</clipPath>
	<g transform="matrix(1 0 0 1 0 -4.768372e-007)" display="inline" clip-path="url(#SVGID_2_)">
		
			<image overflow="visible" width="498" height="397" xlink:href="D201EAC.jpg"  transform="matrix(0.1028 0 0 0.1028 -9.1309 -6.791)">
		</image>
	</g>
</g>
</svg>
