<?xml version="1.0" encoding="utf-8"?>
<!-- Generator: Adobe Illustrator 16.0.0, SVG Export Plug-In . SVG Version: 6.00 Build 0)  -->
<!DOCTYPE svg PUBLIC "-//W3C//DTD SVG 1.1//EN" "http://www.w3.org/Graphics/SVG/1.1/DTD/svg11.dtd">
<svg version="1.1" xmlns="http://www.w3.org/2000/svg" xmlns:xlink="http://www.w3.org/1999/xlink" x="0px" y="0px" width="30px"
	 height="30px" viewBox="0 0 30 30" enable-background="new 0 0 30 30" xml:space="preserve">
<g id="Layer_1" display="none" opacity="0.5">
	
		<image display="inline" overflow="visible" width="299" height="317" xlink:href="CE03C2B2.jpg"  transform="matrix(0.1019 0 0 0.1019 -0.4775 -2.3125)">
	</image>
</g>
<g id="Layer_2">
	<circle fill="#EFEEE9" cx="15" cy="15" r="15"/>
	<circle fill="#A0C1CA" cx="15" cy="15" r="13.812"/>
	<path opacity="0.2" fill="#525D76" d="M28.811,15.045L23.7,9.862c-0.357-0.362-0.917-0.389-1.252-0.059L11.759,20.343
		c-0.334,0.33-0.315,0.892,0.042,1.254l6.667,6.759C24.4,26.82,28.789,21.454,28.811,15.045z"/>
	<path fill="#EFEEE9" d="M23.826,9.925l-1.652-1.664c-0.508-0.512-1.284-0.568-1.733-0.122l-7.585,7.529l-3.509-3.483
		c-0.45-0.445-1.225-0.39-1.734,0.122L5.96,13.971c-0.509,0.512-0.56,1.289-0.111,1.734l5.617,5.576l0.004-0.003l-1.195-1.204
		l1.652,1.664c0.51,0.513,1.284,0.568,1.733,0.123l10.276-10.202C24.386,11.214,24.335,10.438,23.826,9.925z"/>
</g>
</svg>
