<?xml version="1.0" encoding="utf-8"?>
<!-- Generator: Adobe Illustrator 16.0.0, SVG Export Plug-In . SVG Version: 6.00 Build 0)  -->
<!DOCTYPE svg PUBLIC "-//W3C//DTD SVG 1.1//EN" "http://www.w3.org/Graphics/SVG/1.1/DTD/svg11.dtd">
<svg version="1.1" id="Layer_1" xmlns="http://www.w3.org/2000/svg" xmlns:xlink="http://www.w3.org/1999/xlink" x="0px" y="0px"
	 width="500px" height="500px" viewBox="0 0 500 500" enable-background="new 0 0 500 500" xml:space="preserve">
<g>
	<g>
		<path fill="#F7F7F7" d="M246.251,272.902c-54.681,0-99.167-44.486-99.167-99.167s44.486-99.167,99.167-99.167
			s99.167,44.486,99.167,99.167S300.931,272.902,246.251,272.902z M246.251,99.569c-40.896,0-74.167,33.271-74.167,74.167
			c0,40.895,33.271,74.167,74.167,74.167s74.167-33.271,74.167-74.167S287.146,99.569,246.251,99.569z"/>
	</g>
</g>
<g>
	<g>
		<path fill="#F7F7F7" d="M100.462,425.432c-6.688,0-12.23-5.293-12.483-12.032c-0.075-2.022-0.113-4.071-0.113-6.086
			c0-87.899,71.512-159.411,159.41-159.411c32.92,0,64.521,9.952,91.388,28.781c5.653,3.962,7.024,11.757,3.063,17.41
			s-11.758,7.024-17.41,3.063c-22.641-15.867-49.28-24.254-77.04-24.254c-74.114,0-134.41,60.297-134.41,134.411
			c0,1.704,0.032,3.437,0.096,5.149c0.259,6.898-5.124,12.7-12.023,12.959C100.779,425.429,100.619,425.432,100.462,425.432z"/>
	</g>
</g>
<g>
	<path fill="#F7F7F7" d="M375.336,424.952c-6.902,0-12.5-5.597-12.5-12.5V299.561c0-6.903,5.598-12.5,12.5-12.5
		c6.903,0,12.5,5.597,12.5,12.5v112.892C387.836,419.355,382.239,424.952,375.336,424.952z"/>
</g>
<g>
	<path fill="#F7F7F7" d="M431.781,368.506H318.89c-6.903,0-12.5-5.598-12.5-12.5c0-6.903,5.597-12.5,12.5-12.5h112.892
		c6.903,0,12.5,5.597,12.5,12.5C444.281,362.908,438.685,368.506,431.781,368.506z"/>
</g>
</svg>
