<?xml version="1.0" encoding="utf-8"?>
<!-- Generator: Adobe Illustrator 16.0.0, SVG Export Plug-In . SVG Version: 6.00 Build 0)  -->
<!DOCTYPE svg PUBLIC "-//W3C//DTD SVG 1.1//EN" "http://www.w3.org/Graphics/SVG/1.1/DTD/svg11.dtd">
<svg version="1.1" id="Layer_1" xmlns="http://www.w3.org/2000/svg" xmlns:xlink="http://www.w3.org/1999/xlink" x="0px" y="0px"
	 width="500px" height="500px" viewBox="0 0 500 500" enable-background="new 0 0 500 500" xml:space="preserve">
<g display="none">
	<g display="inline">
		<g>
			<path fill="#F7F7F7" d="M238.975,272.373c-54.681,0-99.167-44.486-99.167-99.167s44.486-99.167,99.167-99.167
				s99.167,44.486,99.167,99.167S293.654,272.373,238.975,272.373z M238.975,99.04c-40.896,0-74.167,33.271-74.167,74.167
				c0,40.895,33.271,74.167,74.167,74.167s74.167-33.271,74.167-74.167S279.87,99.04,238.975,99.04z"/>
		</g>
	</g>
	<g display="inline">
		<g>
			<path fill="#F7F7F7" d="M93.186,424.902c-6.688,0-12.23-5.293-12.483-12.032c-0.075-2.022-0.113-4.071-0.113-6.086
				c0-87.899,71.512-159.411,159.41-159.411c32.92,0,64.521,9.952,91.388,28.781c5.653,3.962,7.024,11.757,3.063,17.41
				s-11.758,7.024-17.41,3.063c-22.641-15.867-49.28-24.254-77.04-24.254c-74.114,0-134.41,60.297-134.41,134.411
				c0,1.704,0.032,3.437,0.096,5.149c0.259,6.898-5.124,12.7-12.023,12.959C93.503,424.899,93.343,424.902,93.186,424.902z"/>
		</g>
	</g>
	<g display="inline">
		<path fill="#F7F7F7" d="M368.06,424.423c-6.902,0-12.5-5.597-12.5-12.5V299.031c0-6.903,5.598-12.5,12.5-12.5
			c6.903,0,12.5,5.597,12.5,12.5v112.892C380.56,418.826,374.963,424.423,368.06,424.423z"/>
	</g>
	<g display="inline">
		<path fill="#F7F7F7" d="M424.505,367.977H311.613c-6.903,0-12.5-5.598-12.5-12.5c0-6.903,5.597-12.5,12.5-12.5h112.892
			c6.903,0,12.5,5.597,12.5,12.5C437.005,362.379,431.408,367.977,424.505,367.977z"/>
	</g>
</g>
<g>
	<g>
		<path fill="#F7F7F7" d="M247.231,272.902c-54.681,0-99.167-44.486-99.167-99.167c0-54.682,44.486-99.167,99.167-99.167
			c54.682,0,99.167,44.486,99.167,99.167C346.398,228.416,301.913,272.902,247.231,272.902z M247.231,99.569
			c-40.896,0-74.167,33.271-74.167,74.167c0,40.895,33.271,74.166,74.167,74.166c40.896,0,74.167-33.271,74.167-74.166
			C321.398,132.84,288.126,99.569,247.231,99.569z"/>
	</g>
	<g>
		<path fill="#F7F7F7" d="M101.442,425.432c-6.688,0-12.23-5.293-12.483-12.031c-0.075-2.023-0.113-4.071-0.113-6.086
			c0-87.899,71.512-159.412,159.41-159.412c32.92,0,64.521,9.953,91.388,28.781c5.653,3.963,7.024,11.758,3.063,17.41
			c-3.961,5.654-11.758,7.025-17.409,3.063c-22.642-15.867-49.28-24.255-77.041-24.255c-74.114,0-134.41,60.298-134.41,134.412
			c0,1.703,0.032,3.437,0.096,5.149c0.259,6.897-5.124,12.7-12.023,12.959C101.759,425.429,101.6,425.432,101.442,425.432z"/>
	</g>
	<g>
		<path fill="#F7F7F7" d="M344.22,419.402c-2.359,0-4.745-0.666-6.863-2.062l-50.738-33.414c-5.767-3.797-7.361-11.549-3.564-17.313
			c3.797-5.766,11.548-7.361,17.314-3.564l50.738,33.414c5.766,3.797,7.361,11.549,3.564,17.314
			C352.269,417.425,348.283,419.402,344.22,419.402z"/>
	</g>
	<g>
		<path fill="#F7F7F7" d="M345.22,419.902c-2.388,0-4.8-0.682-6.935-2.106c-5.738-3.836-7.282-11.599-3.447-17.339l65.798-98.467
			c3.836-5.739,11.598-7.284,17.339-3.448c5.739,3.836,7.283,11.599,3.448,17.339l-65.799,98.467
			C353.215,417.954,349.255,419.902,345.22,419.902z"/>
	</g>
</g>
</svg>
