<svg xmlns="http://www.w3.org/2000/svg" viewBox="0 0 21.83 25.93"><defs><style>.cls-1{fill:#fff}</style></defs><g id="Layer_2" data-name="Layer 2"><g id="Layer_1-2" data-name="Layer 1"><path class="cls-1" d="M10.87 13.67A6.84 6.84 0 1 0 4 6.84a6.84 6.84 0 0 0 6.87 6.83Zm0-11.67A4.89 4.89 0 1 1 6 6.84 4.89 4.89 0 0 1 10.87 2Z"/><path class="cls-1" d="M18.64 13a1 1 0 0 0-1.44 1.32 10.23 10.23 0 0 1 2.67 6.27 1 1 0 0 1-.18.66c-1.58 2.12-6.49 2.6-8 2.7a12 12 0 0 1-1.47 0c-6.32-.43-7.88-2.3-8.22-2.86a.62.62 0 0 1 0-.23 8.81 8.81 0 0 1 2.5-6.21 4 4 0 0 0 .31-.38 1 1 0 0 0-.29-1.37.93.93 0 0 0-1.32.28l-.2.15a10.68 10.68 0 0 0-3 7.56 2.44 2.44 0 0 0 .33 1.18c.71 1.23 2.93 3.36 9.8 3.83h1.73c2.67-.18 7.45-.86 9.4-3.49a2.94 2.94 0 0 0 .56-1.92A12.24 12.24 0 0 0 18.64 13Z"/></g></g></svg>